<?xml version="1.0" encoding="UTF-8" standalone="no"?>
<!-- Created with Inkscape (http://www.inkscape.org/) -->

<svg
   xmlns:dc="http://purl.org/dc/elements/1.1/"
   xmlns:cc="http://creativecommons.org/ns#"
   xmlns:rdf="http://www.w3.org/1999/02/22-rdf-syntax-ns#"
   xmlns:svg="http://www.w3.org/2000/svg"
   xmlns="http://www.w3.org/2000/svg"
   xmlns:sodipodi="http://sodipodi.sourceforge.net/DTD/sodipodi-0.dtd"
   xmlns:inkscape="http://www.inkscape.org/namespaces/inkscape"
   width="43.669067mm"
   height="30.741056mm"
   viewBox="0 0 43.669067 30.741056"
   version="1.1"
   id="svg9194"
   inkscape:version="0.92.4 (5da689c313, 2019-01-14)"
   sodipodi:docname="2T_Ncells.svg">
  <defs
     id="defs9188">
    <marker
       inkscape:isstock="true"
       style="overflow:visible"
       id="marker5001"
       refX="0"
       refY="0"
       orient="auto"
       inkscape:stockid="DotS">
      <path
         inkscape:connector-curvature="0"
         transform="matrix(0.2,0,0,0.2,1.48,0.2)"
         style="fill:#000000;fill-opacity:1;fill-rule:evenodd;stroke:#000000;stroke-width:1.00000003pt;stroke-opacity:1"
         d="m -2.5,-1 c 0,2.76 -2.24,5 -5,5 -2.76,0 -5,-2.24 -5,-5 0,-2.76 2.24,-5 5,-5 2.76,0 5,2.24 5,5 z"
         id="path4999" />
    </marker>
    <marker
       inkscape:isstock="true"
       style="overflow:visible"
       id="marker5001-3"
       refX="0"
       refY="0"
       orient="auto"
       inkscape:stockid="DotS">
      <path
         inkscape:connector-curvature="0"
         transform="matrix(0.2,0,0,0.2,1.48,0.2)"
         style="fill:#000000;fill-opacity:1;fill-rule:evenodd;stroke:#000000;stroke-width:1.00000003pt;stroke-opacity:1"
         d="m -2.5,-1 c 0,2.76 -2.24,5 -5,5 -2.76,0 -5,-2.24 -5,-5 0,-2.76 2.24,-5 5,-5 2.76,0 5,2.24 5,5 z"
         id="path4999-0" />
    </marker>
    <marker
       inkscape:isstock="true"
       style="overflow:visible"
       id="marker5001-3-9"
       refX="0"
       refY="0"
       orient="auto"
       inkscape:stockid="DotS">
      <path
         inkscape:connector-curvature="0"
         transform="matrix(0.2,0,0,0.2,1.48,0.2)"
         style="fill:#000000;fill-opacity:1;fill-rule:evenodd;stroke:#000000;stroke-width:1.00000003pt;stroke-opacity:1"
         d="m -2.5,-1 c 0,2.76 -2.24,5 -5,5 -2.76,0 -5,-2.24 -5,-5 0,-2.76 2.24,-5 5,-5 2.76,0 5,2.24 5,5 z"
         id="path4999-0-1" />
    </marker>
    <marker
       inkscape:stockid="DotS"
       orient="auto"
       refY="0"
       refX="0"
       id="DotS-02-5-0"
       style="overflow:visible"
       inkscape:isstock="true"
       inkscape:collect="always">
      <path
         inkscape:connector-curvature="0"
         id="path4664-6-4-9"
         d="m -2.5,-1 c 0,2.76 -2.24,5 -5,5 -2.76,0 -5,-2.24 -5,-5 0,-2.76 2.24,-5 5,-5 2.76,0 5,2.24 5,5 z"
         style="fill:#000000;fill-opacity:1;fill-rule:evenodd;stroke:#000000;stroke-width:1.00000003pt;stroke-opacity:1"
         transform="matrix(0.2,0,0,0.2,1.48,0.2)" />
    </marker>
    <marker
       inkscape:isstock="true"
       style="overflow:visible"
       id="marker5001-3-9-1"
       refX="0"
       refY="0"
       orient="auto"
       inkscape:stockid="DotS">
      <path
         inkscape:connector-curvature="0"
         transform="matrix(0.2,0,0,0.2,1.48,0.2)"
         style="fill:#000000;fill-opacity:1;fill-rule:evenodd;stroke:#000000;stroke-width:1.00000003pt;stroke-opacity:1"
         d="m -2.5,-1 c 0,2.76 -2.24,5 -5,5 -2.76,0 -5,-2.24 -5,-5 0,-2.76 2.24,-5 5,-5 2.76,0 5,2.24 5,5 z"
         id="path4999-0-1-1" />
    </marker>
  </defs>
  <sodipodi:namedview
     id="base"
     pagecolor="#ffffff"
     bordercolor="#666666"
     borderopacity="1.0"
     inkscape:pageopacity="0.0"
     inkscape:pageshadow="2"
     inkscape:zoom="0.7"
     inkscape:cx="129.83252"
     inkscape:cy="181.15523"
     inkscape:document-units="mm"
     inkscape:current-layer="layer1"
     showgrid="false"
     inkscape:window-width="2560"
     inkscape:window-height="1387"
     inkscape:window-x="1912"
     inkscape:window-y="-8"
     inkscape:window-maximized="1"
     fit-margin-top="0"
     fit-margin-left="0"
     fit-margin-right="0"
     fit-margin-bottom="0" />
  <metadata
     id="metadata9191">
    <rdf:RDF>
      <cc:Work
         rdf:about="">
        <dc:format>image/svg+xml</dc:format>
        <dc:type
           rdf:resource="http://purl.org/dc/dcmitype/StillImage" />
        <dc:title></dc:title>
      </cc:Work>
    </rdf:RDF>
  </metadata>
  <g
     inkscape:label="Ebene 1"
     inkscape:groupmode="layer"
     id="layer1"
     transform="translate(-27.566628,-141.00197)">
    <g
       id="g7765"
       transform="translate(18.407114,-4.5560716)">
      <rect
         y="149.24184"
         x="9.1595144"
         height="7.8711514"
         width="31.427246"
         id="rect4522-8-6-0-4-6"
         style="opacity:1;fill:#1d7849;fill-opacity:1;stroke:none;stroke-width:0.3985405;stroke-linecap:round;stroke-miterlimit:4;stroke-dasharray:none;stroke-dashoffset:0;stroke-opacity:1" />
      <rect
         style="opacity:1;fill:#3d5f71;fill-opacity:1;stroke:none;stroke-width:0.28495792;stroke-linecap:round;stroke-miterlimit:4;stroke-dasharray:none;stroke-dashoffset:0;stroke-opacity:1"
         id="rect4522-6-76-2-5"
         width="31.427246"
         height="4.0239706"
         x="9.1595182"
         y="145.55804" />
      <path
         style="fill:none;stroke:#000000;stroke-width:1;stroke-linecap:butt;stroke-linejoin:miter;stroke-miterlimit:4;stroke-dasharray:none;stroke-opacity:1;marker-end:url(#DotS-02-5-0)"
         d="M 40.564947,147.57002 H 51.715248"
         id="path4554-4-9-3"
         inkscape:connector-curvature="0" />
      <rect
         y="172.27513"
         x="9.1595163"
         height="4.0239706"
         width="31.427246"
         id="rect4522-6-4-9-8-0"
         style="opacity:1;fill:#3d5f71;fill-opacity:1;stroke:none;stroke-width:0.28495792;stroke-linecap:round;stroke-miterlimit:4;stroke-dasharray:none;stroke-dashoffset:0;stroke-opacity:1" />
      <path
         inkscape:connector-curvature="0"
         id="path4554-6-8-8-0"
         d="M 40.553353,174.28718 H 51.703651"
         style="fill:none;stroke:#000000;stroke-width:1;stroke-linecap:butt;stroke-linejoin:miter;stroke-miterlimit:4;stroke-dasharray:none;stroke-opacity:1;marker-end:url(#marker5001-3-9-1)" />
      <rect
         y="164.672"
         x="9.1595144"
         height="7.8711514"
         width="31.427246"
         id="rect4522-8-9-3-1-2-7-2"
         style="opacity:1;fill:#1c3e72;fill-opacity:1;stroke:none;stroke-width:0.3985405;stroke-linecap:round;stroke-miterlimit:4;stroke-dasharray:none;stroke-dashoffset:0;stroke-opacity:1" />
      <text
         transform="rotate(90)"
         id="text7755"
         y="-24.333202"
         x="157.00697"
         style="font-style:normal;font-variant:normal;font-weight:normal;font-stretch:normal;font-size:7.05555534px;line-height:1.25;font-family:carlibri;-inkscape-font-specification:carlibri;letter-spacing:0px;word-spacing:0px;fill:#000000;fill-opacity:1;stroke:none;stroke-width:0.26458332"
         xml:space="preserve"><tspan
           style="stroke-width:0.26458332"
           y="-24.333202"
           x="157.00697"
           id="tspan7753"
           sodipodi:role="line">...</tspan></text>
    </g>
  </g>
</svg>
